<mxfile host="app.diagrams.net" modified="2022-08-08T22:15:13.339Z" agent="5.0 (Windows NT 10.0; Win64; x64) AppleWebKit/537.36 (KHTML, like Gecko) Chrome/104.0.0.0 Safari/537.36" etag="Ce8ypGJ-UBvirL7x4Ef0" version="20.2.3" type="github">
  <diagram id="pMYg86Royyl0uLWHSh9I" name="PÃ¡gina-1">
    <mxGraphModel dx="1038" dy="579" grid="1" gridSize="10" guides="1" tooltips="1" connect="1" arrows="1" fold="1" page="1" pageScale="1" pageWidth="827" pageHeight="1169" math="0" shadow="0">
      <root>
        <mxCell id="0" />
        <mxCell id="1" parent="0" />
        <mxCell id="Otz2cYfHUTZSd3sCq6w1-2" value="" style="rounded=0;whiteSpace=wrap;html=1;" vertex="1" parent="1">
          <mxGeometry x="330" y="190" width="120" height="60" as="geometry" />
        </mxCell>
        <mxCell id="Otz2cYfHUTZSd3sCq6w1-3" value="" style="ellipse;whiteSpace=wrap;html=1;aspect=fixed;" vertex="1" parent="1">
          <mxGeometry x="340" y="320" width="80" height="80" as="geometry" />
        </mxCell>
        <mxCell id="Otz2cYfHUTZSd3sCq6w1-4" value="" style="ellipse;whiteSpace=wrap;html=1;" vertex="1" parent="1">
          <mxGeometry x="310" y="60" width="120" height="80" as="geometry" />
        </mxCell>
      </root>
    </mxGraphModel>
  </diagram>
</mxfile>
